<svg aria-hidden="true" xmlns="http://www.w3.org/2000/svg" xmlns:xlink="http://www.w3.org/1999/xlink"><symbol viewBox="0 0 16 20" id="cart" xmlns="http://www.w3.org/2000/svg">
<path d="M2.3 19.5C1.8 19.5 1.375 19.325 1.025 18.975C0.675 18.625 0.5 18.2 0.5 17.7V6.3C0.5 5.8 0.675 5.375 1.025 5.025C1.375 4.675 1.8 4.5 2.3 4.5H4.25V4.25C4.25 3.21667 4.61667 2.33333 5.35 1.6C6.08333 0.866667 6.96667 0.5 8 0.5C9.03333 0.5 9.91667 0.866667 10.65 1.6C11.3833 2.33333 11.75 3.21667 11.75 4.25V4.5H13.7C14.2 4.5 14.625 4.675 14.975 5.025C15.325 5.375 15.5 5.8 15.5 6.3V17.7C15.5 18.2 15.325 18.625 14.975 18.975C14.625 19.325 14.2 19.5 13.7 19.5H2.3ZM2.3 18H13.7C13.7667 18 13.8333 17.9667 13.9 17.9C13.9667 17.8333 14 17.7667 14 17.7V6.3C14 6.23333 13.9667 6.16667 13.9 6.1C13.8333 6.03333 13.7667 6 13.7 6H11.75V8.25C11.75 8.46667 11.6793 8.64567 11.538 8.787C11.396 8.929 11.2167 9 11 9C10.7833 9 10.6043 8.929 10.463 8.787C10.321 8.64567 10.25 8.46667 10.25 8.25V6H5.75V8.25C5.75 8.46667 5.67933 8.64567 5.538 8.787C5.396 8.929 5.21667 9 5 9C4.78333 9 4.60433 8.929 4.463 8.787C4.321 8.64567 4.25 8.46667 4.25 8.25V6H2.3C2.23333 6 2.16667 6.03333 2.1 6.1C2.03333 6.16667 2 6.23333 2 6.3V17.7C2 17.7667 2.03333 17.8333 2.1 17.9C2.16667 17.9667 2.23333 18 2.3 18ZM5.75 4.5H10.25V4.25C10.25 3.61667 10.0333 3.08333 9.6 2.65C9.16667 2.21667 8.63333 2 8 2C7.36667 2 6.83333 2.21667 6.4 2.65C5.96667 3.08333 5.75 3.61667 5.75 4.25V4.5ZM2 18V6V18Z"/>
</symbol><symbol viewBox="0 0 16 13" id="checked" xmlns="http://www.w3.org/2000/svg">
<path d="M5.55156 12.1501L0.226562 6.8251L1.27656 5.7501L5.55156 10.0251L14.7266 0.850098L15.7766 1.9251L5.55156 12.1501Z"/>
</symbol><symbol viewBox="0 0 18 20" id="date-picker" xmlns="http://www.w3.org/2000/svg">
<path d="M2 20C1.45 20 0.979 19.8043 0.587 19.413C0.195667 19.021 0 18.55 0 18V4C0 3.45 0.195667 2.97933 0.587 2.588C0.979 2.196 1.45 2 2 2H3V0H5V2H13V0H15V2H16C16.55 2 17.021 2.196 17.413 2.588C17.8043 2.97933 18 3.45 18 4V18C18 18.55 17.8043 19.021 17.413 19.413C17.021 19.8043 16.55 20 16 20H2ZM2 18H16V8H2V18ZM2 6H16V4H2V6ZM2 6V4V6ZM9 12C8.71667 12 8.47933 11.904 8.288 11.712C8.096 11.5207 8 11.2833 8 11C8 10.7167 8.096 10.479 8.288 10.287C8.47933 10.0957 8.71667 10 9 10C9.28333 10 9.521 10.0957 9.713 10.287C9.90433 10.479 10 10.7167 10 11C10 11.2833 9.90433 11.5207 9.713 11.712C9.521 11.904 9.28333 12 9 12ZM5 12C4.71667 12 4.479 11.904 4.287 11.712C4.09567 11.5207 4 11.2833 4 11C4 10.7167 4.09567 10.479 4.287 10.287C4.479 10.0957 4.71667 10 5 10C5.28333 10 5.521 10.0957 5.713 10.287C5.90433 10.479 6 10.7167 6 11C6 11.2833 5.90433 11.5207 5.713 11.712C5.521 11.904 5.28333 12 5 12ZM13 12C12.7167 12 12.4793 11.904 12.288 11.712C12.096 11.5207 12 11.2833 12 11C12 10.7167 12.096 10.479 12.288 10.287C12.4793 10.0957 12.7167 10 13 10C13.2833 10 13.5207 10.0957 13.712 10.287C13.904 10.479 14 10.7167 14 11C14 11.2833 13.904 11.5207 13.712 11.712C13.5207 11.904 13.2833 12 13 12ZM9 16C8.71667 16 8.47933 15.904 8.288 15.712C8.096 15.5207 8 15.2833 8 15C8 14.7167 8.096 14.4793 8.288 14.288C8.47933 14.096 8.71667 14 9 14C9.28333 14 9.521 14.096 9.713 14.288C9.90433 14.4793 10 14.7167 10 15C10 15.2833 9.90433 15.5207 9.713 15.712C9.521 15.904 9.28333 16 9 16ZM5 16C4.71667 16 4.479 15.904 4.287 15.712C4.09567 15.5207 4 15.2833 4 15C4 14.7167 4.09567 14.4793 4.287 14.288C4.479 14.096 4.71667 14 5 14C5.28333 14 5.521 14.096 5.713 14.288C5.90433 14.4793 6 14.7167 6 15C6 15.2833 5.90433 15.5207 5.713 15.712C5.521 15.904 5.28333 16 5 16ZM13 16C12.7167 16 12.4793 15.904 12.288 15.712C12.096 15.5207 12 15.2833 12 15C12 14.7167 12.096 14.4793 12.288 14.288C12.4793 14.096 12.7167 14 13 14C13.2833 14 13.5207 14.096 13.712 14.288C13.904 14.4793 14 14.7167 14 15C14 15.2833 13.904 15.5207 13.712 15.712C13.5207 15.904 13.2833 16 13 16Z"/>
</symbol><symbol viewBox="0 0 12 20" id="facebook" xmlns="http://www.w3.org/2000/svg">
<path fill-rule="evenodd" clip-rule="evenodd" d="M4.48769 1.78769C5.47225 0.803123 6.80761 0.25 8.2 0.25H10.9C11.3142 0.25 11.65 0.585786 11.65 1V4.6C11.65 5.01421 11.3142 5.35 10.9 5.35H8.2C8.16022 5.35 8.12206 5.3658 8.09393 5.39393C8.0658 5.42206 8.05 5.46022 8.05 5.5V7.45H10.9C11.131 7.45 11.349 7.5564 11.4912 7.73844C11.6333 7.92048 11.6836 8.15785 11.6276 8.3819L10.7276 11.9819C10.6441 12.3158 10.3442 12.55 10 12.55H8.05V19C8.05 19.4142 7.71421 19.75 7.3 19.75H3.7C3.28579 19.75 2.95 19.4142 2.95 19V12.55H1C0.585786 12.55 0.25 12.2142 0.25 11.8V8.2C0.25 7.78579 0.585786 7.45 1 7.45H2.95V5.5C2.95 4.10761 3.50312 2.77226 4.48769 1.78769ZM8.2 1.75C7.20544 1.75 6.25161 2.14509 5.54835 2.84835C4.84509 3.55161 4.45 4.50544 4.45 5.5V8.2C4.45 8.61421 4.11421 8.95 3.7 8.95H1.75V11.05H3.7C4.11421 11.05 4.45 11.3858 4.45 11.8V18.25H6.55V11.8C6.55 11.3858 6.88579 11.05 7.3 11.05H9.41442L9.93942 8.95H7.3C6.88579 8.95 6.55 8.61421 6.55 8.2V5.5C6.55 5.06239 6.72384 4.64271 7.03327 4.33327C7.34271 4.02384 7.76239 3.85 8.2 3.85H10.15V1.75H8.2Z"/>
</symbol><symbol viewBox="0 0 21 21" id="form-edit" xmlns="http://www.w3.org/2000/svg">
<path d="M2 20.6998C1.45 20.6998 0.979 20.5038 0.587 20.1118C0.195667 19.7205 0 19.2498 0 18.6998V4.6998C0 4.1498 0.195667 3.6788 0.587 3.2868C0.979 2.89547 1.45 2.6998 2 2.6998H10.925L8.925 4.6998H2V18.6998H16V11.7498L18 9.7498V18.6998C18 19.2498 17.8043 19.7205 17.413 20.1118C17.021 20.5038 16.55 20.6998 16 20.6998H2ZM13.175 3.2748L14.6 4.6748L8 11.2748V12.6998H9.4L16.025 6.0748L17.45 7.4748L10.25 14.6998H6V10.4498L13.175 3.2748ZM17.45 7.4748L13.175 3.2748L15.675 0.774805C16.075 0.374805 16.5543 0.174805 17.113 0.174805C17.671 0.174805 18.1417 0.374805 18.525 0.774805L19.925 2.1998C20.3083 2.58314 20.5 3.0498 20.5 3.5998C20.5 4.1498 20.3083 4.61647 19.925 4.9998L17.45 7.4748Z"/>
</symbol><symbol viewBox="0 0 20 20" id="instagram" xmlns="http://www.w3.org/2000/svg">
<path d="M14.0007 5.00005C14.0007 4.44776 14.4484 4.00005 15.0007 4.00005C15.553 4.00005 16.0007 4.44776 16.0007 5.00005C16.0007 5.55233 15.553 6.00005 15.0007 6.00005C14.4484 6.00005 14.0007 5.55233 14.0007 5.00005Z"/>
<path fill-rule="evenodd" clip-rule="evenodd" d="M10.0007 5.25005C7.37732 5.25005 5.25067 7.37669 5.25067 10C5.25067 12.6234 7.37732 14.75 10.0007 14.75C12.624 14.75 14.7507 12.6234 14.7507 10C14.7507 7.37669 12.624 5.25005 10.0007 5.25005ZM6.75067 10C6.75067 8.20512 8.20575 6.75005 10.0007 6.75005C11.7956 6.75005 13.2507 8.20512 13.2507 10C13.2507 11.795 11.7956 13.25 10.0007 13.25C8.20575 13.25 6.75067 11.795 6.75067 10Z"/>
<path fill-rule="evenodd" clip-rule="evenodd" d="M15.2589 0.833061C11.7924 0.44562 8.20902 0.44562 4.74244 0.833061C2.73038 1.05794 1.10605 2.64295 0.869497 4.66548C0.454959 8.20978 0.454959 11.7903 0.869497 15.3346C1.10605 17.3571 2.73038 18.9422 4.74244 19.167C8.20902 19.5545 11.7924 19.5545 15.2589 19.167C17.271 18.9422 18.8953 17.3571 19.1319 15.3346C19.5464 11.7903 19.5464 8.20978 19.1319 4.66548C18.8953 2.64295 17.271 1.05794 15.2589 0.833061ZM4.90905 2.32378C8.2649 1.94871 11.7365 1.94871 15.0923 2.32378C16.4224 2.47244 17.4879 3.52205 17.642 4.83973C18.043 8.26825 18.043 11.7318 17.642 15.1604C17.4879 16.478 16.4224 17.5277 15.0923 17.6763C11.7365 18.0514 8.2649 18.0514 4.90905 17.6763C3.57894 17.5277 2.51346 16.478 2.35934 15.1604C1.95834 11.7318 1.95834 8.26825 2.35934 4.83973C2.51346 3.52205 3.57894 2.47244 4.90905 2.32378Z"/>
</symbol><symbol viewBox="0 0 18 12" id="link-arrow" xmlns="http://www.w3.org/2000/svg">
<path d="M12.1397 0L10.6815 1.50351L14 5H0V7H14L10.702 10.5035L12.167 12L18 5.98597L12.1397 0Z"/>
</symbol><symbol viewBox="0 0 15 21" id="location" xmlns="http://www.w3.org/2000/svg">
<path d="M7.5 14.975C9.15 13.6417 10.396 12.3583 11.238 11.125C12.0793 9.89167 12.5 8.73333 12.5 7.65C12.5 6.71667 12.3293 5.92067 11.988 5.262C11.646 4.604 11.225 4.07067 10.725 3.662C10.225 3.254 9.68333 2.95833 9.1 2.775C8.51667 2.59167 7.98333 2.5 7.5 2.5C7.01667 2.5 6.48333 2.59167 5.9 2.775C5.31667 2.95833 4.775 3.254 4.275 3.662C3.775 4.07067 3.35433 4.604 3.013 5.262C2.671 5.92067 2.5 6.71667 2.5 7.65C2.5 8.73333 2.92067 9.89167 3.762 11.125C4.604 12.3583 5.85 13.6417 7.5 14.975ZM7.5 17.5C5.15 15.7667 3.39567 14.0833 2.237 12.45C1.079 10.8167 0.5 9.21667 0.5 7.65C0.5 6.46667 0.712667 5.429 1.138 4.537C1.56267 3.64567 2.10833 2.9 2.775 2.3C3.44167 1.7 4.19167 1.25 5.025 0.95C5.85833 0.65 6.68333 0.5 7.5 0.5C8.31667 0.5 9.14167 0.65 9.975 0.95C10.8083 1.25 11.5583 1.7 12.225 2.3C12.8917 2.9 13.4377 3.64567 13.863 4.537C14.2877 5.429 14.5 6.46667 14.5 7.65C14.5 9.21667 13.9207 10.8167 12.762 12.45C11.604 14.0833 9.85 15.7667 7.5 17.5ZM7.5 9.5C8.05 9.5 8.521 9.304 8.913 8.912C9.30433 8.52067 9.5 8.05 9.5 7.5C9.5 6.95 9.30433 6.479 8.913 6.087C8.521 5.69567 8.05 5.5 7.5 5.5C6.95 5.5 6.47933 5.69567 6.088 6.087C5.696 6.479 5.5 6.95 5.5 7.5C5.5 8.05 5.696 8.52067 6.088 8.912C6.47933 9.304 6.95 9.5 7.5 9.5ZM0.5 20.5V18.5H14.5V20.5H0.5Z"/>
</symbol><symbol viewBox="0 0 19 20" id="order-cart" xmlns="http://www.w3.org/2000/svg">
<path d="M5.71654 19.5C5.22752 19.5 4.81033 19.332 4.46497 18.996C4.11895 18.6593 3.94593 18.253 3.94593 17.7772C3.94593 17.3014 4.11895 16.8951 4.46497 16.5584C4.81033 16.2224 5.22752 16.0544 5.71654 16.0544C6.20557 16.0544 6.62276 16.2224 6.96811 16.5584C7.31414 16.8951 7.48715 17.3014 7.48715 17.7772C7.48715 18.253 7.31414 18.6593 6.96811 18.996C6.62276 19.332 6.20557 19.5 5.71654 19.5ZM15.5308 19.5C15.0418 19.5 14.6246 19.332 14.2792 18.996C13.9332 18.6593 13.7602 18.253 13.7602 17.7772C13.7602 17.3014 13.9332 16.8951 14.2792 16.5584C14.6246 16.2224 15.0418 16.0544 15.5308 16.0544C16.0198 16.0544 16.437 16.2224 16.7824 16.5584C17.1284 16.8951 17.3014 17.3014 17.3014 17.7772C17.3014 18.253 17.1284 18.6593 16.7824 18.996C16.437 19.332 16.0198 19.5 15.5308 19.5ZM4.57829 3.9456L7.13303 9.16321H14.0384C14.089 9.16321 14.1396 9.15074 14.1902 9.1258C14.2408 9.10152 14.2745 9.06477 14.2914 9.01554L17.0232 4.21632C17.0569 4.15069 17.0569 4.08933 17.0232 4.03223C16.9894 3.97447 16.9388 3.9456 16.8714 3.9456H4.57829ZM3.84475 2.46891H17.8832C18.3047 2.46891 18.6211 2.64119 18.8322 2.98575C19.0427 3.33031 19.0551 3.68307 18.8696 4.04404L15.6067 9.75389C15.4549 10.0328 15.2401 10.2501 14.9622 10.4056C14.6836 10.5618 14.3841 10.6399 14.0637 10.6399H6.67773L5.51419 12.7319C5.4636 12.8139 5.45955 12.8959 5.50205 12.978C5.54387 13.06 5.61536 13.101 5.71654 13.101H17.3014V14.5777H5.71654C5.04202 14.5777 4.53614 14.2949 4.19888 13.7291C3.86162 13.1627 3.85319 12.6006 4.17358 12.0427L5.61536 9.50777L1.92238 1.97668H0V0.5H2.88357L3.84475 2.46891ZM7.13303 9.16321H14.2155H7.13303Z"/>
</symbol><symbol viewBox="0 0 18 18" id="phone" xmlns="http://www.w3.org/2000/svg">
<path d="M16.95 18C14.8 18 12.7043 17.5207 10.663 16.562C8.621 15.604 6.81267 14.3373 5.238 12.762C3.66267 11.1873 2.396 9.379 1.438 7.337C0.479334 5.29567 0 3.2 0 1.05C0 0.75 0.0999999 0.5 0.3 0.3C0.5 0.0999999 0.75 0 1.05 0H5.1C5.33333 0 5.54167 0.0749999 5.725 0.225C5.90833 0.375 6.01667 0.566667 6.05 0.8L6.7 4.3C6.73333 4.53333 6.72933 4.74567 6.688 4.937C6.646 5.129 6.55 5.3 6.4 5.45L3.975 7.9C4.675 9.1 5.55433 10.225 6.613 11.275C7.671 12.325 8.83333 13.2333 10.1 14L12.45 11.65C12.6 11.5 12.796 11.3873 13.038 11.312C13.2793 11.2373 13.5167 11.2167 13.75 11.25L17.2 11.95C17.4333 12 17.625 12.1123 17.775 12.287C17.925 12.4623 18 12.6667 18 12.9V16.95C18 17.25 17.9 17.5 17.7 17.7C17.5 17.9 17.25 18 16.95 18ZM3.025 6L4.675 4.35L4.25 2H2.025C2.10833 2.68333 2.225 3.35833 2.375 4.025C2.525 4.69167 2.74167 5.35 3.025 6ZM11.975 14.95C12.625 15.2333 13.2877 15.4583 13.963 15.625C14.6377 15.7917 15.3167 15.9 16 15.95V13.75L13.65 13.275L11.975 14.95Z"/>
</symbol><symbol viewBox="0 0 20 20" id="pinterest" xmlns="http://www.w3.org/2000/svg">
<path fill-rule="evenodd" clip-rule="evenodd" d="M10 0.25C4.61522 0.25 0.25 4.61522 0.25 10C0.25 15.3848 4.61522 19.75 10 19.75C15.3848 19.75 19.75 15.3848 19.75 10C19.75 4.61522 15.3848 0.25 10 0.25ZM1.75 10C1.75 5.44365 5.44365 1.75 10 1.75C14.5563 1.75 18.25 5.44365 18.25 10C18.25 14.5563 14.5563 18.25 10 18.25C9.14272 18.25 8.31599 18.1192 7.53865 17.8766C7.96125 17.213 8.29734 16.498 8.53871 15.7491L9.05527 13.7719C9.26869 14.0765 9.55482 14.3229 9.88766 14.4888C10.2205 14.6547 10.5895 14.7348 10.9612 14.7219C13.4965 14.7219 15.2778 12.4181 15.2778 9.55626C15.2778 6.80719 13.0334 4.75282 10.1537 4.75282C6.56746 4.75282 4.66152 7.16344 4.66152 9.78188C4.66152 11.005 5.30871 12.5191 6.34777 13.0059C6.50214 13.0772 6.60308 13.0059 6.62683 12.8931C6.65057 12.7804 6.79292 12.211 6.85828 11.9495C6.86853 11.9081 6.8686 11.8643 6.85825 11.8229C6.8479 11.7815 6.82756 11.7433 6.79902 11.7116C6.40647 11.1585 6.19867 10.4957 6.20527 9.81751C6.20321 9.33072 6.29996 8.84858 6.48964 8.40026C6.67932 7.95195 6.958 7.54679 7.30881 7.2093C7.65962 6.87181 8.07527 6.60902 8.53058 6.43682C8.9859 6.26463 9.47143 6.18662 9.95777 6.20751C10.4133 6.18086 10.8694 6.24946 11.2969 6.40892C11.7245 6.56838 12.1141 6.8152 12.4409 7.13365C12.7677 7.45209 13.0246 7.83516 13.1951 8.25841C13.3656 8.68166 13.446 9.13581 13.4312 9.59188C13.4312 11.8363 12.2912 13.3978 10.8187 13.3978C10.6285 13.4124 10.4375 13.381 10.262 13.3062C10.0865 13.2313 9.93165 13.1153 9.81049 12.9679C9.68933 12.8206 9.60546 12.6462 9.56599 12.4595C9.52651 12.2729 9.53259 12.0794 9.58371 11.8956C9.6681 11.5454 9.77947 11.1847 9.888 10.8332C10.0849 10.1955 10.2725 9.58809 10.2725 9.12876C10.293 8.97956 10.2811 8.82769 10.2375 8.68353C10.1939 8.53938 10.1196 8.40636 10.0198 8.29358C9.91998 8.1808 9.79697 8.09093 9.65919 8.03011C9.52141 7.9693 9.37211 7.93899 9.22152 7.94126C8.39027 7.94126 7.71933 8.80813 7.71933 9.96001C7.71315 10.3671 7.78992 10.7711 7.94496 11.1475L6.96527 15.3038C6.84525 16.0891 6.84499 16.8882 6.96449 17.6736C6.31392 17.4161 5.70391 17.0782 5.14671 16.6722C4.16962 15.9584 3.35317 15.0348 2.76292 13.9593C2.53071 13.5362 2.33712 13.0962 2.18299 12.6446C1.90223 11.8144 1.75 10.925 1.75 10Z"/>
</symbol><symbol viewBox="0 0 16 20" id="security" xmlns="http://www.w3.org/2000/svg">
<path d="M2.3 19.5C1.8 19.5 1.375 19.325 1.025 18.975C0.675 18.625 0.5 18.2 0.5 17.7V8.3C0.5 7.8 0.675 7.375 1.025 7.025C1.375 6.675 1.8 6.5 2.3 6.5H3.5V4.5C3.5 3.25 3.93733 2.18733 4.812 1.312C5.68733 0.437333 6.75 0 8 0C9.25 0 10.3127 0.437333 11.188 1.312C12.0627 2.18733 12.5 3.25 12.5 4.5V6.5H13.7C14.2 6.5 14.625 6.675 14.975 7.025C15.325 7.375 15.5 7.8 15.5 8.3V17.7C15.5 18.2 15.325 18.625 14.975 18.975C14.625 19.325 14.2 19.5 13.7 19.5H2.3ZM2.3 18H13.7C13.7833 18 13.8543 17.971 13.913 17.913C13.971 17.8543 14 17.7833 14 17.7V8.3C14 8.21667 13.971 8.14567 13.913 8.087C13.8543 8.029 13.7833 8 13.7 8H2.3C2.21667 8 2.146 8.029 2.088 8.087C2.02933 8.14567 2 8.21667 2 8.3V17.7C2 17.7833 2.02933 17.8543 2.088 17.913C2.146 17.971 2.21667 18 2.3 18ZM8 14.75C8.48333 14.75 8.896 14.5793 9.238 14.238C9.57933 13.896 9.75 13.4833 9.75 13C9.75 12.5167 9.57933 12.104 9.238 11.762C8.896 11.4207 8.48333 11.25 8 11.25C7.51667 11.25 7.104 11.4207 6.762 11.762C6.42067 12.104 6.25 12.5167 6.25 13C6.25 13.4833 6.42067 13.896 6.762 14.238C7.104 14.5793 7.51667 14.75 8 14.75ZM5 6.5H11V4.5C11 3.66667 10.7083 2.95833 10.125 2.375C9.54167 1.79167 8.83333 1.5 8 1.5C7.16667 1.5 6.45833 1.79167 5.875 2.375C5.29167 2.95833 5 3.66667 5 4.5V6.5ZM2 18V8V18Z"/>
</symbol><symbol viewBox="0 0 16 27" id="slider-arrow" xmlns="http://www.w3.org/2000/svg">
<path d="M3.43125 1.36663L14.6646 12.5666C14.7979 12.7 14.8921 12.8444 14.9473 13C15.0033 13.1555 15.0312 13.3222 15.0312 13.5C15.0312 13.6777 15.0033 13.8444 14.9473 14C14.8921 14.1555 14.7979 14.3 14.6646 14.4333L3.43125 25.6666C3.12014 25.9777 2.73125 26.1333 2.26458 26.1333C1.79792 26.1333 1.39792 25.9666 1.06458 25.6333C0.731251 25.3 0.564584 24.9111 0.564584 24.4666C0.564584 24.0222 0.731251 23.6333 1.06458 23.3L10.8646 13.5L1.06458 3.69997C0.753472 3.38885 0.597917 3.00574 0.597917 2.55063C0.597917 2.09463 0.764584 1.69997 1.09792 1.36663C1.43125 1.0333 1.82014 0.866632 2.26458 0.866632C2.70903 0.866632 3.09792 1.0333 3.43125 1.36663Z"/>
</symbol><symbol viewBox="0 0 14 14" id="spoller-arrow" xmlns="http://www.w3.org/2000/svg">
<path d="M0 1.41L1.41 0L12 10.59V4H14V14H4V12H10.59L0 1.41Z"/>
</symbol><symbol viewBox="0 0 21 19" id="telegram" xmlns="http://www.w3.org/2000/svg">
<path fill-rule="evenodd" clip-rule="evenodd" d="M4.7868 11.0196C4.83058 11.0344 4.87476 11.0448 4.9189 11.0512C4.96703 11.1644 5.02923 11.3107 5.10179 11.4818C5.27886 11.8994 5.51745 12.4643 5.76373 13.0535C6.26597 14.2552 6.77259 15.4939 6.88447 15.8485C7.02298 16.2868 7.16939 16.5848 7.32923 16.7883C7.41187 16.8935 7.50745 16.9853 7.6193 17.0549C7.6756 17.0899 7.73507 17.1186 7.79715 17.14C7.79988 17.141 7.80262 17.1419 7.80535 17.1428C8.12536 17.2636 8.41712 17.2133 8.59979 17.1518C8.69754 17.1188 8.77662 17.0791 8.83267 17.0469C8.86124 17.0304 8.88539 17.0151 8.90465 17.0021L8.90919 16.9991L11.7354 15.2366L14.9999 17.7394C15.0481 17.7763 15.1006 17.8073 15.1563 17.8316C15.5485 18.0027 15.9282 18.0624 16.2855 18.0136C16.6421 17.9649 16.9253 17.8151 17.1361 17.6464C17.3425 17.4813 17.4824 17.2963 17.5696 17.1589C17.6141 17.0887 17.6475 17.0266 17.671 16.9791C17.6829 16.9552 17.6924 16.9346 17.6998 16.9181L17.7092 16.8963L17.7127 16.8877L17.7142 16.8841L17.7149 16.8824L17.7155 16.8808C17.7327 16.8379 17.7458 16.7935 17.7548 16.7482L20.7351 1.72274C20.7446 1.67469 20.7494 1.62581 20.7494 1.57682C20.7494 1.13681 20.5836 0.718409 20.1938 0.464515C19.8606 0.247518 19.4894 0.238177 19.2548 0.255982C19.0018 0.275189 18.7681 0.337656 18.6112 0.387572C18.5296 0.41355 18.4612 0.438614 18.4119 0.457735C18.3871 0.467345 18.3668 0.47559 18.3516 0.481878L18.3402 0.486665L1.62652 7.04321L1.62436 7.04399C1.6137 7.04786 1.60003 7.05297 1.58378 7.05929C1.55141 7.07189 1.50805 7.08965 1.4574 7.1126C1.35861 7.15738 1.22003 7.22734 1.07783 7.32473C0.850639 7.48031 0.328148 7.90641 0.416129 8.60971C0.486318 9.17078 0.870699 9.51537 1.10489 9.68107C1.23348 9.77206 1.35565 9.83713 1.44462 9.87949C1.48589 9.89913 1.57159 9.93395 1.60877 9.94905L1.61815 9.95287L4.7868 11.0196ZM18.9252 1.86786L18.9228 1.86888C18.9145 1.8725 18.9061 1.87596 18.8977 1.87928L2.16367 8.44378C2.15493 8.44721 2.14613 8.45047 2.13727 8.45357L2.12795 8.4571C2.11725 8.46127 2.09923 8.46858 2.0766 8.47884C2.06378 8.48465 2.05039 8.49099 2.03674 8.4978C2.05549 8.50836 2.07344 8.51754 2.08939 8.52513C2.1047 8.53242 2.11637 8.5374 2.12277 8.54003L5.2654 9.59802C5.32292 9.61738 5.37654 9.64304 5.42576 9.67397L15.8025 3.59948L15.8122 3.59374C15.8198 3.58927 15.8297 3.58353 15.8416 3.5768C15.8652 3.56345 15.8977 3.54568 15.9363 3.52603C16.0083 3.48938 16.1235 3.43497 16.2533 3.39485C16.3437 3.36692 16.6102 3.28823 16.8983 3.38064C17.0761 3.43767 17.2602 3.56028 17.3799 3.76798C17.4394 3.87117 17.4711 3.97483 17.4865 4.06972C17.5272 4.2192 17.5208 4.36681 17.4889 4.49424C17.4201 4.76875 17.2272 4.98287 17.0517 5.14665C16.9014 5.28706 14.956 7.16292 13.0369 9.01468C12.0798 9.93813 11.1325 10.8525 10.4245 11.5359L9.95943 11.9849L15.8314 16.4867C15.966 16.5349 16.0456 16.5325 16.0825 16.5274C16.1264 16.5214 16.1623 16.5045 16.199 16.4752C16.24 16.4424 16.2759 16.398 16.3027 16.3557L16.3038 16.354L19.1943 1.78102C19.1514 1.79133 19.108 1.80361 19.0662 1.81691C19.0189 1.83198 18.9798 1.84634 18.9539 1.85637C18.9411 1.86134 18.9319 1.86511 18.9269 1.86719L18.9252 1.86786ZM10.4639 14.2618L9.29241 13.3636L9.00855 15.1693L10.4639 14.2618ZM8.21773 11.5814L9.3827 10.4567C10.0908 9.77321 11.0382 8.85879 11.9953 7.93524L12.9678 6.997L6.44779 10.8138L6.48278 10.8963C6.66048 11.3154 6.90013 11.8827 7.14772 12.4751C7.33284 12.918 7.52643 13.3844 7.70276 13.8162L7.98579 12.0158C8.01308 11.8422 8.09788 11.692 8.21773 11.5814Z"/>
</symbol><symbol viewBox="0 0 22 19" id="twitter" xmlns="http://www.w3.org/2000/svg">
<path fill-rule="evenodd" clip-rule="evenodd" d="M14.0215 0.343401C14.5299 0.256319 15.0992 0.227243 15.635 0.317885C16.5918 0.479768 17.4757 0.924496 18.1744 1.59126C18.6311 1.60158 19.0799 1.51161 19.477 1.38335C19.8131 1.2748 20.097 1.14373 20.296 1.04009C20.3949 0.988559 20.4713 0.944601 20.521 0.914841C20.5458 0.899984 20.5638 0.88874 20.5745 0.881949L20.5841 0.875888C20.8809 0.67816 21.2761 0.716643 21.529 0.968149C21.7819 1.21971 21.8226 1.61463 21.6264 1.91254C21.4187 2.22783 21.1303 2.7899 20.8073 3.41966C20.7565 3.51868 20.7048 3.61937 20.6525 3.72104C20.4672 4.08101 20.2772 4.44482 20.1001 4.75695C19.9889 4.95294 19.87 5.15191 19.7501 5.32385V5.59763C19.7577 6.60326 19.6424 7.60364 19.4083 8.57686C19.261 9.18921 19.0667 9.7908 18.8265 10.3762C18.2041 11.8928 17.2857 13.2703 16.1249 14.428C14.9642 15.5858 13.5844 16.5006 12.0662 17.1192C10.5492 17.7372 8.9245 18.047 7.28665 18.0305C4.91234 18.0326 2.58798 17.3485 0.593255 16.0606C0.299454 15.8709 0.175755 15.5033 0.295092 15.1746C0.414428 14.8459 0.745121 14.6433 1.09219 14.6862C1.39255 14.7234 1.69496 14.7415 1.99762 14.7405C3.08507 14.7375 4.15181 14.4972 5.12567 14.0446C4.81612 13.9037 4.52058 13.7299 4.24443 13.5251C3.43271 12.9232 2.8288 12.0833 2.51673 11.1221C2.43564 10.8724 2.49108 10.5984 2.66289 10.3998C2.66597 10.3963 2.66908 10.3927 2.67221 10.3892C2.48869 10.2256 2.31696 10.0474 2.15886 9.85578C1.44754 8.99357 1.05587 7.91214 1.05009 6.7944L1.05007 6.79053L1.05008 6.74053C1.05008 6.47466 1.19083 6.22867 1.42003 6.09395C1.47813 6.05979 1.53972 6.03409 1.60307 6.01685C1.26473 5.34177 1.08879 4.59632 1.09007 3.84006C1.08968 2.98329 1.31347 2.14133 1.73923 1.39782C1.86214 1.18319 2.08297 1.04295 2.3295 1.02298C2.57603 1.003 2.81656 1.10585 2.97242 1.2979C3.93498 2.48391 5.13626 3.45417 6.49825 4.14564C7.19839 4.50109 7.93294 4.77879 8.68874 4.97522C9.11247 5.08535 9.54288 5.16994 9.97765 5.22836C9.9585 4.50511 10.1013 3.78224 10.4011 3.11431C10.8407 2.13448 11.5932 1.3283 12.5404 0.822212C12.9416 0.607883 13.4741 0.437172 14.0215 0.343401ZM2.74335 7.8909C2.873 8.25578 3.06586 8.5981 3.31592 8.9012C3.80724 9.49675 4.48919 9.9043 5.24641 10.0549C5.58369 10.122 5.83213 10.4099 5.84916 10.7534C5.86618 11.0969 5.64743 11.4079 5.31843 11.508C5.04594 11.591 4.76676 11.6487 4.48441 11.6808C4.67099 11.9213 4.89047 12.1368 5.13787 12.3202C5.69906 12.7364 6.376 12.9672 7.07451 12.9807C7.39143 12.9868 7.6703 13.1914 7.77112 13.492C7.87195 13.7925 7.77296 14.1239 7.52386 14.3199C6.47469 15.1455 5.26149 15.7211 3.97594 16.015C5.04142 16.3562 6.15887 16.5319 7.28916 16.5305L7.29786 16.5305C8.73792 16.5455 10.1665 16.2734 11.5002 15.73C12.8339 15.1867 14.046 14.383 15.0656 13.366C16.0853 12.349 16.892 11.139 17.4388 9.80668C17.6498 9.29246 17.8205 8.764 17.9499 8.22609C18.1557 7.37032 18.257 6.49065 18.2501 5.60639L18.2501 5.60052V5.07053C18.2501 4.88867 18.3161 4.71301 18.436 4.57624C18.5053 4.4972 18.6264 4.31464 18.7955 4.01674C18.9561 3.73362 19.1339 3.39371 19.3188 3.03453C19.33 3.0128 19.3412 2.99097 19.3525 2.96903C18.8729 3.07318 18.3293 3.12777 17.7595 3.06618C17.579 3.04668 17.4118 2.96239 17.2887 2.82895C16.7858 2.28362 16.1162 1.92061 15.3848 1.79687C15.0602 1.74196 14.6679 1.75453 14.2748 1.82187C13.8477 1.89503 13.476 2.02304 13.2473 2.14522C12.593 2.49479 12.0733 3.05163 11.7696 3.72842C11.4659 4.4052 11.3954 5.16365 11.5692 5.88481C11.6246 6.11472 11.5683 6.3573 11.4174 6.53933C11.2664 6.72136 11.0384 6.82151 10.8022 6.80957C9.95877 6.76691 9.12429 6.63826 8.31142 6.42699C7.45152 6.2035 6.61579 5.88755 5.81921 5.48314C4.64643 4.88773 3.57838 4.11063 2.65354 3.18294C2.61135 3.39855 2.58993 3.61858 2.59008 3.84003L2.59007 3.84195C2.58903 4.39267 2.72418 4.9351 2.98349 5.42095C3.2428 5.9068 3.61822 6.32099 4.07633 6.62664C4.35436 6.81214 4.47608 7.15922 4.37483 7.47774C4.27358 7.79626 3.97378 8.00934 3.63968 8.00025C3.33708 7.99201 3.03702 7.95521 2.74335 7.8909Z"/>
</symbol></svg>